<svg width="96" height="36" viewBox="0 0 96 36" fill="none" xmlns="http://www.w3.org/2000/svg">
<g clip-path="url(#clip0_351_34)">
<path d="M21.105 25.483L19.8283 22.9539L18.5612 22.9588L18.5333 15.7446C19.2945 15.4795 20.0537 15.1192 20.7274 14.6943C21.274 14.3496 21.7571 13.9642 22.1473 13.5628C22.666 13.0291 23.0201 12.4674 23.141 11.9356L8.82815 11.991C9.04732 12.9212 9.9838 13.938 11.2631 14.7309C11.9401 15.1506 12.7021 15.5049 13.4652 15.7642L13.4932 22.9785L12.2261 22.9834L10.9689 25.5224L21.105 25.483L21.105 25.483ZM17.1987 11.163L15.9437 1.42941L14.7642 11.1725L17.1987 11.163Z" fill="#F81313"/>
</g>
<g clip-path="url(#clip1_351_34)">
<path d="M53.105 29.483L51.8283 26.9539L50.5612 26.9588L50.5333 19.7446C51.2945 19.4795 52.0537 19.1192 52.7274 18.6943C53.274 18.3496 53.7571 17.9642 54.1473 17.5628C54.666 17.0291 55.0201 16.4674 55.141 15.9356L40.8282 15.991C41.0473 16.9212 41.9838 17.938 43.2631 18.7309C43.9401 19.1506 44.7021 19.5049 45.4652 19.7642L45.4932 26.9785L44.2261 26.9834L42.9689 29.5224L53.105 29.483L53.105 29.483ZM49.1987 15.163L47.9437 5.42941L46.7642 15.1725L49.1987 15.163Z" fill="#5016FF"/>
</g>
<g clip-path="url(#clip2_351_34)">
<path d="M85.105 25.483L83.8283 22.9539L82.5612 22.9588L82.5333 15.7446C83.2945 15.4795 84.0537 15.1192 84.7274 14.6943C85.274 14.3496 85.7571 13.9642 86.1473 13.5628C86.666 13.0291 87.0201 12.4674 87.141 11.9356L72.8282 11.991C73.0473 12.9212 73.9838 13.938 75.2631 14.7309C75.9401 15.1506 76.7021 15.5049 77.4652 15.7642L77.4932 22.9785L76.2261 22.9834L74.9689 25.5224L85.105 25.483L85.105 25.483ZM81.1987 11.163L79.9437 1.42941L78.7642 11.1725L81.1987 11.163Z" fill="#0DB418"/>
</g>
<defs>
<clipPath id="clip0_351_34">
<rect width="22.6276" height="22.6276" fill="white" transform="translate(32 15.938) rotate(134.778)"/>
</clipPath>
<clipPath id="clip1_351_34">
<rect width="22.6276" height="22.6276" fill="white" transform="translate(64 19.938) rotate(134.778)"/>
</clipPath>
<clipPath id="clip2_351_34">
<rect width="22.6276" height="22.6276" fill="white" transform="translate(96 15.938) rotate(134.778)"/>
</clipPath>
</defs>
</svg>
