<?xml version="1.0" encoding="UTF-8" standalone="no"?>
<svg xmlns="http://www.w3.org/2000/svg" version="1.1">
<path d="M 128,662 L 127,663 L 127,665 L 126,666 L 126,668 L 125,669 L 125,670 L 124,671 L 124,673 L 123,674 L 123,676 L 122,677 L 122,678 L 121,679 L 121,681 L 120,682 L 120,684 L 119,685 L 119,687 L 118,688 L 118,690 L 117,691 L 117,692 L 116,693 L 116,695 L 115,696 L 115,698 L 114,699 L 114,700 L 113,701 L 113,702 L 112,703 L 112,704 L 111,705 L 111,707 L 110,708 L 110,709 L 109,710 L 109,711 L 108,712 L 108,714 L 107,715 L 107,716 L 106,717 L 106,719 L 105,720 L 105,722 L 104,723 L 104,725 L 103,726 L 103,728 L 102,729 L 102,733 L 103,734 L 103,736 L 104,737 L 104,738 L 109,743 L 110,743 L 111,744 L 114,744 L 115,745 L 115,746 L 114,747 L 114,750 L 113,751 L 113,754 L 112,755 L 112,758 L 111,759 L 111,762 L 110,763 L 110,766 L 109,767 L 109,771 L 108,772 L 108,774 L 107,775 L 107,778 L 106,779 L 106,782 L 105,783 L 105,787 L 104,788 L 104,790 L 103,791 L 103,794 L 102,795 L 103,795 L 106,792 L 107,792 L 110,789 L 111,789 L 115,785 L 116,785 L 125,776 L 126,776 L 133,769 L 134,769 L 141,762 L 142,762 L 147,757 L 148,757 L 154,751 L 155,751 L 162,744 L 171,744 L 172,745 L 172,748 L 171,749 L 171,752 L 170,753 L 170,756 L 169,757 L 169,760 L 168,761 L 168,764 L 167,765 L 167,768 L 166,769 L 166,772 L 165,773 L 165,776 L 164,777 L 164,780 L 163,781 L 163,784 L 162,785 L 162,788 L 161,789 L 161,792 L 160,793 L 160,795 L 162,793 L 163,793 L 165,791 L 166,791 L 168,789 L 169,789 L 173,785 L 174,785 L 182,777 L 183,777 L 190,770 L 191,770 L 196,765 L 197,765 L 203,759 L 204,759 L 210,753 L 211,753 L 220,744 L 228,744 L 230,746 L 229,747 L 229,749 L 228,750 L 228,754 L 227,755 L 227,758 L 226,759 L 226,762 L 225,763 L 225,766 L 224,767 L 224,770 L 223,771 L 223,774 L 222,775 L 222,778 L 221,779 L 221,782 L 220,783 L 220,786 L 219,787 L 219,790 L 218,791 L 218,794 L 217,795 L 218,795 L 220,793 L 221,793 L 222,792 L 223,792 L 226,789 L 227,789 L 231,785 L 232,785 L 239,778 L 240,778 L 246,772 L 247,772 L 253,766 L 254,766 L 259,761 L 260,761 L 266,755 L 267,755 L 276,746 L 277,746 L 278,745 L 281,745 L 282,744 L 288,744 L 289,745 L 289,749 L 288,750 L 288,754 L 287,755 L 287,758 L 286,759 L 286,762 L 285,763 L 285,766 L 284,767 L 284,770 L 283,771 L 283,774 L 282,775 L 282,778 L 281,779 L 281,782 L 280,783 L 280,786 L 279,787 L 279,790 L 278,791 L 278,793 L 277,794 L 279,794 L 281,792 L 282,792 L 284,790 L 285,790 L 290,785 L 291,785 L 299,777 L 300,777 L 308,769 L 309,769 L 315,763 L 316,763 L 322,757 L 323,757 L 329,751 L 330,751 L 337,744 L 347,744 L 348,745 L 348,748 L 347,749 L 347,752 L 346,753 L 346,756 L 345,757 L 345,760 L 344,761 L 344,764 L 343,765 L 343,768 L 342,769 L 342,772 L 341,773 L 341,776 L 340,777 L 340,780 L 339,781 L 339,784 L 338,785 L 338,788 L 337,789 L 337,792 L 336,793 L 336,795 L 337,794 L 338,794 L 340,792 L 341,792 L 343,790 L 344,790 L 346,788 L 347,788 L 352,783 L 353,783 L 358,778 L 359,778 L 364,773 L 365,773 L 371,767 L 372,767 L 375,764 L 376,764 L 380,760 L 381,760 L 386,755 L 387,755 L 393,749 L 394,749 L 399,744 L 410,744 L 411,745 L 411,747 L 410,748 L 410,751 L 409,752 L 409,755 L 408,756 L 408,759 L 407,760 L 407,763 L 406,764 L 406,767 L 405,768 L 405,771 L 404,772 L 404,775 L 403,776 L 403,778 L 402,779 L 402,782 L 401,783 L 401,786 L 400,787 L 400,790 L 399,791 L 399,794 L 400,793 L 405,793 L 406,792 L 410,792 L 411,791 L 415,791 L 416,790 L 420,790 L 421,789 L 425,789 L 426,788 L 430,788 L 431,787 L 433,787 L 434,786 L 437,786 L 438,785 L 441,785 L 442,784 L 444,784 L 445,783 L 448,783 L 449,782 L 451,782 L 452,781 L 454,781 L 455,780 L 457,780 L 458,779 L 459,779 L 460,778 L 462,778 L 463,777 L 464,777 L 465,776 L 466,776 L 467,775 L 468,775 L 469,774 L 470,774 L 471,773 L 472,773 L 473,772 L 474,772 L 475,771 L 476,771 L 478,769 L 479,769 L 484,764 L 484,763 L 486,761 L 486,760 L 487,759 L 487,758 L 488,757 L 488,756 L 489,755 L 489,753 L 490,752 L 490,749 L 491,748 L 491,729 L 490,728 L 490,721 L 489,720 L 489,714 L 488,713 L 488,707 L 487,706 L 487,702 L 486,701 L 486,696 L 485,695 L 485,691 L 484,690 L 484,687 L 483,686 L 483,683 L 482,682 L 482,680 L 481,679 L 481,677 L 480,676 L 480,675 L 479,674 L 479,673 L 478,672 L 478,671 L 471,664 L 470,664 L 469,663 L 467,663 L 466,662 L 462,662 L 461,663 L 380,663 L 379,662 L 378,663 L 377,662 L 376,662 L 375,663 L 356,663 L 355,662 L 352,662 L 351,663 L 348,663 L 347,662 Z" fill="black" />
<path d="M 736,652 L 735,653 L 733,653 L 732,654 L 731,654 L 730,655 L 729,655 L 728,656 L 727,656 L 726,657 L 725,657 L 722,660 L 721,660 L 717,664 L 717,665 L 713,669 L 713,670 L 711,672 L 711,673 L 710,674 L 710,675 L 709,676 L 709,677 L 708,678 L 708,679 L 707,680 L 707,681 L 706,682 L 706,684 L 705,685 L 705,686 L 704,687 L 704,689 L 703,690 L 703,692 L 702,693 L 702,696 L 701,697 L 701,701 L 700,702 L 700,707 L 699,708 L 699,733 L 700,734 L 700,739 L 701,740 L 701,743 L 702,744 L 702,747 L 703,748 L 703,750 L 704,751 L 704,753 L 705,754 L 705,755 L 706,756 L 706,758 L 707,759 L 707,760 L 708,761 L 708,762 L 709,763 L 709,764 L 711,766 L 711,767 L 713,769 L 713,770 L 718,775 L 718,776 L 720,778 L 721,778 L 724,781 L 725,781 L 727,783 L 728,783 L 729,784 L 730,784 L 731,785 L 733,785 L 734,786 L 737,786 L 738,787 L 745,787 L 746,786 L 750,786 L 751,785 L 752,785 L 753,784 L 754,784 L 755,783 L 756,783 L 757,782 L 758,782 L 759,781 L 760,781 L 763,778 L 764,778 L 772,770 L 772,769 L 774,767 L 774,766 L 776,764 L 776,763 L 777,762 L 777,761 L 778,760 L 778,759 L 779,758 L 779,757 L 780,756 L 780,755 L 781,754 L 781,752 L 782,751 L 782,749 L 783,748 L 783,746 L 784,745 L 784,741 L 785,740 L 785,736 L 786,735 L 786,729 L 787,728 L 787,711 L 786,710 L 786,703 L 785,702 L 785,698 L 784,697 L 784,693 L 783,692 L 783,690 L 782,689 L 782,687 L 781,686 L 781,684 L 780,683 L 780,682 L 779,681 L 779,679 L 778,678 L 778,677 L 776,675 L 776,674 L 775,673 L 775,672 L 773,670 L 773,669 L 770,666 L 770,665 L 765,660 L 764,660 L 761,657 L 760,657 L 759,656 L 758,656 L 757,655 L 756,655 L 755,654 L 754,654 L 753,653 L 751,653 L 750,652 Z" fill="black" />
<path d="M 355,209 L 354,210 L 349,210 L 348,211 L 344,211 L 343,212 L 341,212 L 340,213 L 337,213 L 336,214 L 334,214 L 333,215 L 332,215 L 331,216 L 329,216 L 328,217 L 327,217 L 326,218 L 324,218 L 323,219 L 322,219 L 321,220 L 320,220 L 319,221 L 318,221 L 317,222 L 316,222 L 314,224 L 313,224 L 312,225 L 311,225 L 308,228 L 307,228 L 305,230 L 304,230 L 301,233 L 300,233 L 296,237 L 295,237 L 290,242 L 289,242 L 282,249 L 281,249 L 267,263 L 267,264 L 261,270 L 261,271 L 256,276 L 256,277 L 253,280 L 253,281 L 251,283 L 251,284 L 249,286 L 249,287 L 247,289 L 247,290 L 245,292 L 245,293 L 244,294 L 244,295 L 242,297 L 242,298 L 241,299 L 241,300 L 240,301 L 240,302 L 238,304 L 238,305 L 237,306 L 237,307 L 236,308 L 236,310 L 235,311 L 235,312 L 234,313 L 234,314 L 233,315 L 233,316 L 232,317 L 232,318 L 231,319 L 231,321 L 230,322 L 230,323 L 229,324 L 229,326 L 228,327 L 228,329 L 227,330 L 227,332 L 226,333 L 226,335 L 225,336 L 225,338 L 224,339 L 224,342 L 223,343 L 223,346 L 222,347 L 222,350 L 221,351 L 221,355 L 220,356 L 220,362 L 219,363 L 219,370 L 218,371 L 218,403 L 219,404 L 219,412 L 220,413 L 220,419 L 221,420 L 221,425 L 222,426 L 222,430 L 223,431 L 223,434 L 224,435 L 224,438 L 225,439 L 225,442 L 226,443 L 226,446 L 227,447 L 227,449 L 228,450 L 228,452 L 229,453 L 229,456 L 230,457 L 230,459 L 231,460 L 231,462 L 232,463 L 232,466 L 233,467 L 233,469 L 234,470 L 234,472 L 235,473 L 235,476 L 236,477 L 236,480 L 237,481 L 237,484 L 238,485 L 238,488 L 239,489 L 239,493 L 240,494 L 240,498 L 241,499 L 241,504 L 242,505 L 242,510 L 243,511 L 243,517 L 244,518 L 244,525 L 245,526 L 245,536 L 246,537 L 246,541 L 245,542 L 242,542 L 241,543 L 240,543 L 239,544 L 238,544 L 236,546 L 236,547 L 235,548 L 235,549 L 234,550 L 234,565 L 233,566 L 233,573 L 234,574 L 234,582 L 235,583 L 235,584 L 240,589 L 244,589 L 245,590 L 310,590 L 314,594 L 314,595 L 318,599 L 318,600 L 321,603 L 317,607 L 317,608 L 306,619 L 306,620 L 301,625 L 301,626 L 298,629 L 298,630 L 297,631 L 297,632 L 296,633 L 296,634 L 295,635 L 295,636 L 294,637 L 294,638 L 293,639 L 293,640 L 292,641 L 292,642 L 291,643 L 291,644 L 289,646 L 289,647 L 288,648 L 288,649 L 287,650 L 287,651 L 286,652 L 286,653 L 285,654 L 285,655 L 286,655 L 287,654 L 288,655 L 306,655 L 307,654 L 308,655 L 310,655 L 311,654 L 313,654 L 314,655 L 315,654 L 316,655 L 317,655 L 318,654 L 319,655 L 320,654 L 477,654 L 477,652 L 478,651 L 478,648 L 479,647 L 479,645 L 480,644 L 480,642 L 481,641 L 481,639 L 482,638 L 482,636 L 483,635 L 483,633 L 484,632 L 484,631 L 485,630 L 485,629 L 486,628 L 486,626 L 487,625 L 487,624 L 488,623 L 488,622 L 490,620 L 490,619 L 491,618 L 491,617 L 492,616 L 492,615 L 494,613 L 494,612 L 496,610 L 496,609 L 500,605 L 500,604 L 513,591 L 514,591 L 517,588 L 518,588 L 520,586 L 521,586 L 522,585 L 523,585 L 524,584 L 525,584 L 526,583 L 527,583 L 528,582 L 529,582 L 530,581 L 531,581 L 532,580 L 534,580 L 535,579 L 537,579 L 538,578 L 541,578 L 542,577 L 547,577 L 548,576 L 560,576 L 561,577 L 565,577 L 566,578 L 569,578 L 570,579 L 572,579 L 573,580 L 575,580 L 576,581 L 577,581 L 578,582 L 579,582 L 580,583 L 581,583 L 582,584 L 583,584 L 585,586 L 586,586 L 588,588 L 589,588 L 603,602 L 603,603 L 606,606 L 606,607 L 608,609 L 608,610 L 610,612 L 610,613 L 611,614 L 611,615 L 613,617 L 613,618 L 614,619 L 614,620 L 615,621 L 615,622 L 616,623 L 616,624 L 617,625 L 617,627 L 618,628 L 618,629 L 619,630 L 619,631 L 620,632 L 620,634 L 621,635 L 621,637 L 622,638 L 622,640 L 623,641 L 623,644 L 624,645 L 624,648 L 625,649 L 625,652 L 626,653 L 626,658 L 627,659 L 627,665 L 628,666 L 628,674 L 627,675 L 626,674 L 626,669 L 625,668 L 625,664 L 624,663 L 624,660 L 623,659 L 623,657 L 622,656 L 622,653 L 621,652 L 621,650 L 620,649 L 620,648 L 619,647 L 619,645 L 618,644 L 618,643 L 617,642 L 617,641 L 616,640 L 616,638 L 614,636 L 614,634 L 612,632 L 612,631 L 611,630 L 611,629 L 609,627 L 609,626 L 607,624 L 607,623 L 603,619 L 603,618 L 595,610 L 594,610 L 591,607 L 590,607 L 588,605 L 587,605 L 586,604 L 585,604 L 584,603 L 583,603 L 582,602 L 581,602 L 580,601 L 579,601 L 578,600 L 576,600 L 575,599 L 572,599 L 571,598 L 567,598 L 566,597 L 558,597 L 557,598 L 552,598 L 551,599 L 548,599 L 547,600 L 545,600 L 544,601 L 543,601 L 542,602 L 540,602 L 538,604 L 537,604 L 536,605 L 535,605 L 533,607 L 532,607 L 528,611 L 527,611 L 522,616 L 522,617 L 517,622 L 517,623 L 515,625 L 515,626 L 513,628 L 513,629 L 511,631 L 511,632 L 510,633 L 510,634 L 509,635 L 509,636 L 508,637 L 508,638 L 507,639 L 507,640 L 506,641 L 506,642 L 505,643 L 505,645 L 504,646 L 504,647 L 503,648 L 503,650 L 502,651 L 502,653 L 501,654 L 501,657 L 500,658 L 500,660 L 499,661 L 499,664 L 498,665 L 498,670 L 497,671 L 497,676 L 496,677 L 496,689 L 495,690 L 495,699 L 496,700 L 496,712 L 497,713 L 497,719 L 498,720 L 498,724 L 499,725 L 499,728 L 500,729 L 500,732 L 501,733 L 501,735 L 502,736 L 502,738 L 503,739 L 503,741 L 504,742 L 504,744 L 505,745 L 505,746 L 506,747 L 506,748 L 507,749 L 507,751 L 509,753 L 509,754 L 510,755 L 510,756 L 511,757 L 511,758 L 512,759 L 512,760 L 514,762 L 514,763 L 517,766 L 517,767 L 530,780 L 531,780 L 533,782 L 534,782 L 536,784 L 537,784 L 538,785 L 539,785 L 540,786 L 541,786 L 542,787 L 543,787 L 544,788 L 546,788 L 547,789 L 550,789 L 551,790 L 555,790 L 556,791 L 566,791 L 567,790 L 571,790 L 572,789 L 574,789 L 575,788 L 577,788 L 578,787 L 580,787 L 581,786 L 582,786 L 583,785 L 584,785 L 585,784 L 586,784 L 588,782 L 589,782 L 591,780 L 592,780 L 597,775 L 598,775 L 601,772 L 601,771 L 606,766 L 606,765 L 608,763 L 608,762 L 610,760 L 610,759 L 612,757 L 612,756 L 613,755 L 613,754 L 615,752 L 615,751 L 616,750 L 616,748 L 617,747 L 617,746 L 618,745 L 618,744 L 619,743 L 619,741 L 620,740 L 620,739 L 621,738 L 621,735 L 622,734 L 622,732 L 623,731 L 623,728 L 624,727 L 624,724 L 625,723 L 625,719 L 626,718 L 626,715 L 627,714 L 681,714 L 681,707 L 682,706 L 682,699 L 683,698 L 683,693 L 684,692 L 684,689 L 685,688 L 685,685 L 686,684 L 686,682 L 687,681 L 687,678 L 688,677 L 688,676 L 689,675 L 689,673 L 690,672 L 690,671 L 691,670 L 691,669 L 692,668 L 692,666 L 694,664 L 694,663 L 695,662 L 695,661 L 696,660 L 696,659 L 698,657 L 698,656 L 701,653 L 701,652 L 705,648 L 705,647 L 709,643 L 710,643 L 714,639 L 715,639 L 717,637 L 718,637 L 719,636 L 720,636 L 721,635 L 723,635 L 724,634 L 726,634 L 727,633 L 741,633 L 742,634 L 745,634 L 746,635 L 747,635 L 748,636 L 749,636 L 750,637 L 751,637 L 752,638 L 753,638 L 754,639 L 755,639 L 758,642 L 759,642 L 763,646 L 763,645 L 764,644 L 764,640 L 765,639 L 765,634 L 766,633 L 766,629 L 767,628 L 767,624 L 768,623 L 768,619 L 769,618 L 769,614 L 770,613 L 770,608 L 771,607 L 771,604 L 773,602 L 774,602 L 776,600 L 777,600 L 778,599 L 779,599 L 781,597 L 782,597 L 784,595 L 785,595 L 786,594 L 787,594 L 789,592 L 790,592 L 791,591 L 792,591 L 794,589 L 795,589 L 796,588 L 797,588 L 799,586 L 800,586 L 801,585 L 802,585 L 811,576 L 811,575 L 812,574 L 812,573 L 813,572 L 813,571 L 814,570 L 814,568 L 815,567 L 815,550 L 814,549 L 814,544 L 813,543 L 813,540 L 812,539 L 812,535 L 811,534 L 811,530 L 810,529 L 810,525 L 809,524 L 809,520 L 808,519 L 808,515 L 807,514 L 807,511 L 806,510 L 806,506 L 805,505 L 805,501 L 804,500 L 804,496 L 803,495 L 803,491 L 802,490 L 802,486 L 801,485 L 801,482 L 800,481 L 800,477 L 799,476 L 799,471 L 798,470 L 798,466 L 797,465 L 797,462 L 796,461 L 796,460 L 795,459 L 795,458 L 794,457 L 794,456 L 789,451 L 788,451 L 787,450 L 786,450 L 785,449 L 783,449 L 782,448 L 778,448 L 777,447 L 771,447 L 770,446 L 764,446 L 763,445 L 758,445 L 757,444 L 753,444 L 752,443 L 748,443 L 747,442 L 743,442 L 742,441 L 738,441 L 737,440 L 733,440 L 732,439 L 727,439 L 726,438 L 722,438 L 721,437 L 717,437 L 716,436 L 712,436 L 711,435 L 707,435 L 706,434 L 702,434 L 701,433 L 696,433 L 695,432 L 691,432 L 690,431 L 686,431 L 685,430 L 681,430 L 680,429 L 676,429 L 675,428 L 671,428 L 670,427 L 666,427 L 665,426 L 661,426 L 660,425 L 656,425 L 654,423 L 654,422 L 653,421 L 654,420 L 655,420 L 656,419 L 657,419 L 658,418 L 659,418 L 660,417 L 661,417 L 662,416 L 663,416 L 664,415 L 665,415 L 666,414 L 667,414 L 668,413 L 670,413 L 671,412 L 672,412 L 673,411 L 674,411 L 675,410 L 676,410 L 677,409 L 678,409 L 679,408 L 680,408 L 681,407 L 683,407 L 684,406 L 685,406 L 686,405 L 687,405 L 688,404 L 689,404 L 690,403 L 691,403 L 692,402 L 694,402 L 695,401 L 696,401 L 697,400 L 698,400 L 699,399 L 700,399 L 701,398 L 702,398 L 703,397 L 704,397 L 705,396 L 706,396 L 707,395 L 709,395 L 710,394 L 711,394 L 712,393 L 713,393 L 714,392 L 715,392 L 716,391 L 717,391 L 718,390 L 719,390 L 720,389 L 722,389 L 723,388 L 724,388 L 725,387 L 726,387 L 727,386 L 728,386 L 729,385 L 730,385 L 731,384 L 733,384 L 734,383 L 735,383 L 736,382 L 737,382 L 738,381 L 739,381 L 740,380 L 741,380 L 742,379 L 743,379 L 744,378 L 746,378 L 747,377 L 748,377 L 749,376 L 750,376 L 751,375 L 752,375 L 753,374 L 755,374 L 756,373 L 757,373 L 758,372 L 759,372 L 760,371 L 761,371 L 762,370 L 763,370 L 764,369 L 766,369 L 767,368 L 768,368 L 769,367 L 770,367 L 771,366 L 772,366 L 773,365 L 774,365 L 775,364 L 777,364 L 778,363 L 779,363 L 780,362 L 781,362 L 782,361 L 783,361 L 784,360 L 786,360 L 787,359 L 788,359 L 789,358 L 790,358 L 791,357 L 792,357 L 793,356 L 794,356 L 795,355 L 797,355 L 798,354 L 799,354 L 800,353 L 801,353 L 802,352 L 803,352 L 804,351 L 806,351 L 807,350 L 808,350 L 809,349 L 810,349 L 811,348 L 812,348 L 813,347 L 814,347 L 815,346 L 817,346 L 818,345 L 819,345 L 820,344 L 821,344 L 822,343 L 823,343 L 824,342 L 826,342 L 827,341 L 828,341 L 829,340 L 830,340 L 831,339 L 832,339 L 833,338 L 835,338 L 836,337 L 837,337 L 838,336 L 839,336 L 840,335 L 841,335 L 842,334 L 843,334 L 844,333 L 846,333 L 847,332 L 848,332 L 849,331 L 850,331 L 851,330 L 852,330 L 853,329 L 855,329 L 856,328 L 857,328 L 858,327 L 859,327 L 860,326 L 861,326 L 862,325 L 863,325 L 864,324 L 866,324 L 867,323 L 868,323 L 869,322 L 870,322 L 871,321 L 872,321 L 873,320 L 900,347 L 900,348 L 911,359 L 911,360 L 913,362 L 914,361 L 915,361 L 916,360 L 917,360 L 918,359 L 919,359 L 920,358 L 921,358 L 922,357 L 923,357 L 924,356 L 926,356 L 927,355 L 928,355 L 929,354 L 930,354 L 931,353 L 932,353 L 933,352 L 934,352 L 935,351 L 936,351 L 937,350 L 938,350 L 939,349 L 940,349 L 941,348 L 942,348 L 943,347 L 944,347 L 944,346 L 943,345 L 943,343 L 942,342 L 942,341 L 941,340 L 941,339 L 940,338 L 940,336 L 939,335 L 939,334 L 938,333 L 938,332 L 937,331 L 937,329 L 936,328 L 936,327 L 935,326 L 935,324 L 934,323 L 934,322 L 933,321 L 933,320 L 932,319 L 932,317 L 931,316 L 931,315 L 930,314 L 930,313 L 929,312 L 929,310 L 928,309 L 928,308 L 927,307 L 927,306 L 926,305 L 926,303 L 925,302 L 925,301 L 924,300 L 924,299 L 923,298 L 923,296 L 922,295 L 922,294 L 921,293 L 921,292 L 920,291 L 920,290 L 919,289 L 919,287 L 918,286 L 918,285 L 917,284 L 917,283 L 916,282 L 916,280 L 915,279 L 915,278 L 914,277 L 914,276 L 913,275 L 913,273 L 912,272 L 912,271 L 911,270 L 911,269 L 910,268 L 910,267 L 909,266 L 909,265 L 908,264 L 908,263 L 906,261 L 905,261 L 903,259 L 901,259 L 900,258 L 894,258 L 893,259 L 891,259 L 890,260 L 888,260 L 887,261 L 886,261 L 885,262 L 884,262 L 883,263 L 882,263 L 881,264 L 879,264 L 878,265 L 877,265 L 876,266 L 875,266 L 874,267 L 873,267 L 872,268 L 870,268 L 869,269 L 868,269 L 867,270 L 866,270 L 865,271 L 863,271 L 862,272 L 861,272 L 860,273 L 859,273 L 858,274 L 857,274 L 856,275 L 855,275 L 854,276 L 852,276 L 851,277 L 850,277 L 849,278 L 848,278 L 847,279 L 845,279 L 844,280 L 843,280 L 842,281 L 841,281 L 840,282 L 839,282 L 838,283 L 837,283 L 836,284 L 834,284 L 833,285 L 832,285 L 831,286 L 830,286 L 829,287 L 827,287 L 826,288 L 825,288 L 824,289 L 823,289 L 822,290 L 821,290 L 820,291 L 818,291 L 817,292 L 816,292 L 815,293 L 814,293 L 813,294 L 812,294 L 811,295 L 809,295 L 808,296 L 807,296 L 806,297 L 805,297 L 804,298 L 802,298 L 801,299 L 800,299 L 799,300 L 798,300 L 797,301 L 796,301 L 795,302 L 793,302 L 792,303 L 791,303 L 790,304 L 789,304 L 788,305 L 787,305 L 786,306 L 785,306 L 784,307 L 782,307 L 781,308 L 780,308 L 779,309 L 778,309 L 777,310 L 776,310 L 775,311 L 773,311 L 772,312 L 771,312 L 770,313 L 769,313 L 768,314 L 767,314 L 766,315 L 764,315 L 763,316 L 762,316 L 761,317 L 760,317 L 759,318 L 758,318 L 757,319 L 755,319 L 754,320 L 753,320 L 752,321 L 751,321 L 750,322 L 749,322 L 748,323 L 746,323 L 745,324 L 744,324 L 743,325 L 742,325 L 741,326 L 740,326 L 739,327 L 738,327 L 737,328 L 735,328 L 734,329 L 733,329 L 732,330 L 731,330 L 730,331 L 729,331 L 728,332 L 726,332 L 725,333 L 724,333 L 723,334 L 722,334 L 721,335 L 720,335 L 719,336 L 717,336 L 716,337 L 715,337 L 714,338 L 713,338 L 712,339 L 711,339 L 710,340 L 709,340 L 708,341 L 707,341 L 706,342 L 704,342 L 703,343 L 702,343 L 701,344 L 700,344 L 699,345 L 698,345 L 697,346 L 696,346 L 695,347 L 693,347 L 692,348 L 691,348 L 690,349 L 689,349 L 688,350 L 687,350 L 686,351 L 684,351 L 683,352 L 682,352 L 681,353 L 680,353 L 679,354 L 678,354 L 677,355 L 676,355 L 675,356 L 673,356 L 672,357 L 671,357 L 670,358 L 669,358 L 668,359 L 667,359 L 666,360 L 665,360 L 664,361 L 662,361 L 661,362 L 660,362 L 659,363 L 658,363 L 657,364 L 656,364 L 655,365 L 654,365 L 653,366 L 651,366 L 650,367 L 649,367 L 648,368 L 647,368 L 646,369 L 645,369 L 644,370 L 643,370 L 642,371 L 640,371 L 639,372 L 638,372 L 637,373 L 636,373 L 635,374 L 634,374 L 633,375 L 632,375 L 631,376 L 630,376 L 629,375 L 629,374 L 628,373 L 628,372 L 627,371 L 627,370 L 626,369 L 626,368 L 625,367 L 625,366 L 621,362 L 620,362 L 619,361 L 618,361 L 617,360 L 616,360 L 615,359 L 612,359 L 611,358 L 502,358 L 501,357 L 496,357 L 495,356 L 495,353 L 494,352 L 494,348 L 493,347 L 493,342 L 492,341 L 492,336 L 491,335 L 491,330 L 490,329 L 490,325 L 491,324 L 505,324 L 506,323 L 519,323 L 520,322 L 524,322 L 526,320 L 526,319 L 527,318 L 527,311 L 526,310 L 526,309 L 525,308 L 525,307 L 524,306 L 524,305 L 522,303 L 522,302 L 521,301 L 521,300 L 519,298 L 519,297 L 515,293 L 515,292 L 510,287 L 510,286 L 496,272 L 495,272 L 489,266 L 488,266 L 484,262 L 483,262 L 479,258 L 478,258 L 475,255 L 474,255 L 472,253 L 471,253 L 469,251 L 468,251 L 466,249 L 465,249 L 463,247 L 462,247 L 460,245 L 459,245 L 457,243 L 456,243 L 455,242 L 454,242 L 452,240 L 451,240 L 450,239 L 449,239 L 447,237 L 446,237 L 445,236 L 444,236 L 443,235 L 442,235 L 441,234 L 440,234 L 439,233 L 438,233 L 436,231 L 435,231 L 434,230 L 433,230 L 432,229 L 431,229 L 430,228 L 428,228 L 427,227 L 426,227 L 425,226 L 424,226 L 423,225 L 422,225 L 421,224 L 420,224 L 419,223 L 417,223 L 416,222 L 415,222 L 414,221 L 412,221 L 411,220 L 410,220 L 409,219 L 407,219 L 406,218 L 404,218 L 403,217 L 401,217 L 400,216 L 398,216 L 397,215 L 395,215 L 394,214 L 392,214 L 391,213 L 388,213 L 387,212 L 384,212 L 383,211 L 379,211 L 378,210 L 373,210 L 372,209 Z" fill="black" />
</svg>